<svg xmlns="http://www.w3.org/2000/svg" xmlns:xlink="http://www.w3.org/1999/xlink" zoomAndPan="magnify" preserveAspectRatio="xMidYMid meet" version="1.0" viewBox="55.86 134.43 221.01 126.16"><defs><g/><clipPath id="e0230680f9"><path d="M 98 214 L 196.523438 214 L 196.523438 250 L 98 250 Z M 98 214 " clip-rule="nonzero"/></clipPath></defs><path fill="#8c52ff" d="M 150.640625 258.191406 C 152.402344 257.667969 154.113281 257.066406 155.78125 256.398438 C 126.9375 262.105469 97.960938 245.011719 89.421875 216.261719 C 80.882812 187.511719 95.835938 157.371094 123.121094 146.410156 C 121.355469 146.757812 119.59375 147.1875 117.835938 147.710938 C 87.328125 156.769531 69.9375 188.847656 79 219.355469 C 88.058594 249.863281 120.132812 267.25 150.640625 258.191406 " fill-opacity="1" fill-rule="nonzero"/><path fill="#9c27b0" d="M 79.246094 243.566406 C 80.773438 244.765625 82.34375 245.875 83.949219 246.90625 C 61.324219 225.476562 58.324219 189.945312 77.9375 164.929688 C 97.550781 139.917969 132.769531 134.355469 158.980469 151.214844 C 157.59375 149.90625 156.144531 148.644531 154.613281 147.445312 C 128.070312 126.632812 89.683594 131.277344 68.871094 157.820312 C 48.058594 184.363281 52.703125 222.753906 79.246094 243.566406 " fill-opacity="1" fill-rule="nonzero"/><g clip-path="url(#e0230680f9)"><path fill="#9c27b0" d="M 136.039062 240.773438 C 120.296875 236.542969 107.351562 227.105469 98.546875 214.816406 C 105.488281 230.144531 118.980469 242.355469 136.496094 247.0625 C 159.378906 253.214844 182.738281 244.84375 196.792969 227.59375 C 180.449219 241.0625 158.050781 246.691406 136.039062 240.773438 " fill-opacity="1" fill-rule="nonzero"/></g><g fill="#9c27b0" fill-opacity="1"><g transform="translate(115.029567, 205.902796)"><g><path d="M 21.703125 -37.359375 L 29.21875 -37.359375 L 24.84375 -11.5 C 24.53125 -9.132812 23.738281 -7.019531 22.46875 -5.15625 C 21.207031 -3.289062 19.582031 -1.863281 17.59375 -0.875 C 15.613281 0.113281 13.4375 0.582031 11.0625 0.53125 C 7.53125 0.46875 4.804688 -0.570312 2.890625 -2.59375 C 0.984375 -4.613281 0.078125 -7.4375 0.171875 -11.0625 L 7.75 -11.03125 C 7.488281 -7.507812 8.726562 -5.722656 11.46875 -5.671875 C 12.957031 -5.617188 14.222656 -6.113281 15.265625 -7.15625 C 16.304688 -8.195312 16.984375 -9.644531 17.296875 -11.5 Z M 21.703125 -37.359375 "/></g></g></g><g fill="#9c27b0" fill-opacity="1"><g transform="translate(141.289567, 205.902796)"><g><path d="M 15.953125 -28.28125 C 18.398438 -28.238281 20.507812 -27.601562 22.28125 -26.375 C 24.050781 -25.15625 25.347656 -23.472656 26.171875 -21.328125 C 27.003906 -19.179688 27.300781 -16.800781 27.0625 -14.1875 C 26.675781 -9.769531 25.144531 -6.195312 22.46875 -3.46875 C 19.789062 -0.75 16.484375 0.578125 12.546875 0.515625 C 10.128906 0.484375 8.039062 -0.132812 6.28125 -1.34375 C 4.519531 -2.550781 3.21875 -4.222656 2.375 -6.359375 C 1.539062 -8.492188 1.242188 -10.851562 1.484375 -13.4375 C 1.929688 -18.03125 3.488281 -21.675781 6.15625 -24.375 C 8.820312 -27.070312 12.085938 -28.375 15.953125 -28.28125 Z M 8.640625 -10.796875 C 8.679688 -9.160156 9.066406 -7.863281 9.796875 -6.90625 C 10.535156 -5.957031 11.570312 -5.46875 12.90625 -5.4375 C 15.125 -5.375 16.863281 -6.394531 18.125 -8.5 C 19.394531 -10.613281 19.988281 -13.390625 19.90625 -16.828125 C 19.84375 -18.472656 19.445312 -19.785156 18.71875 -20.765625 C 17.988281 -21.753906 16.945312 -22.265625 15.59375 -22.296875 C 13.4375 -22.367188 11.710938 -21.351562 10.421875 -19.25 C 9.140625 -17.15625 8.546875 -14.335938 8.640625 -10.796875 Z M 8.640625 -10.796875 "/></g></g></g><g fill="#9c27b0" fill-opacity="1"><g transform="translate(167.883038, 205.902796)"><g><path d="M 26.765625 -13.796875 C 26.242188 -9.421875 24.90625 -5.914062 22.75 -3.28125 C 20.601562 -0.644531 17.816406 0.625 14.390625 0.53125 C 11.460938 0.46875 9.238281 -0.707031 7.71875 -3 L 6.671875 0 L 0.078125 0 L 6.90625 -39.40625 L 14.15625 -39.40625 L 11.359375 -25.21875 C 13.316406 -27.320312 15.578125 -28.34375 18.140625 -28.28125 C 20.828125 -28.238281 22.9375 -27.269531 24.46875 -25.375 C 26 -23.488281 26.816406 -20.878906 26.921875 -17.546875 C 26.953125 -16.484375 26.898438 -15.234375 26.765625 -13.796875 Z M 19.578125 -14.34375 C 19.734375 -15.800781 19.785156 -16.929688 19.734375 -17.734375 C 19.546875 -20.703125 18.3125 -22.210938 16.03125 -22.265625 C 13.894531 -22.335938 12.125 -21.375 10.71875 -19.375 L 8.71875 -8.34375 C 9.375 -6.488281 10.757812 -5.53125 12.875 -5.46875 C 16.4375 -5.363281 18.617188 -7.945312 19.421875 -13.21875 Z M 19.578125 -14.34375 "/></g></g></g><g fill="#9c27b0" fill-opacity="1"><g transform="translate(192.533562, 204.882335)"><g><path d="M 16.171875 -7.828125 C 16.441406 -9.191406 15.488281 -10.179688 13.3125 -10.796875 L 10.984375 -11.390625 C 5.453125 -12.910156 2.765625 -15.597656 2.921875 -19.453125 C 3.003906 -22.066406 4.160156 -24.195312 6.390625 -25.84375 C 8.628906 -27.5 11.320312 -28.3125 14.46875 -28.28125 C 17.601562 -28.238281 20.132812 -27.40625 22.0625 -25.78125 C 24 -24.15625 24.984375 -21.992188 25.015625 -19.296875 L 17.828125 -19.3125 C 17.867188 -21.695312 16.691406 -22.90625 14.296875 -22.9375 C 13.160156 -22.9375 12.175781 -22.65625 11.34375 -22.09375 C 10.519531 -21.53125 10.015625 -20.769531 9.828125 -19.8125 C 9.566406 -18.4375 10.601562 -17.46875 12.9375 -16.90625 L 13.953125 -16.671875 C 16.316406 -16.109375 18.125 -15.460938 19.375 -14.734375 C 20.625 -14.015625 21.582031 -13.113281 22.25 -12.03125 C 22.925781 -10.957031 23.238281 -9.664062 23.1875 -8.15625 C 23.144531 -6.394531 22.578125 -4.851562 21.484375 -3.53125 C 20.398438 -2.21875 18.910156 -1.203125 17.015625 -0.484375 C 15.128906 0.234375 13.144531 0.566406 11.0625 0.515625 C 7.976562 0.484375 5.410156 -0.398438 3.359375 -2.140625 C 1.304688 -3.878906 0.265625 -6.125 0.234375 -8.875 L 7.0625 -8.828125 C 7.125 -6.171875 8.539062 -4.828125 11.3125 -4.796875 C 12.644531 -4.796875 13.742188 -5.066406 14.609375 -5.609375 C 15.472656 -6.160156 15.992188 -6.898438 16.171875 -7.828125 Z M 16.171875 -7.828125 "/></g></g></g><g fill="#9c27b0" fill-opacity="1"><g transform="translate(216.510956, 204.882335)"><g><path d="M 14.75 -34.59375 L 13.546875 -27.765625 L 18.171875 -27.765625 L 17.21875 -22.328125 L 12.59375 -22.328125 L 10.234375 -8.421875 C 10.128906 -7.546875 10.195312 -6.875 10.4375 -6.40625 C 10.675781 -5.945312 11.257812 -5.703125 12.1875 -5.671875 C 12.457031 -5.648438 13.191406 -5.691406 14.390625 -5.796875 L 13.875 -0.125 C 12.59375 0.300781 11.207031 0.5 9.71875 0.46875 C 7.34375 0.425781 5.570312 -0.316406 4.40625 -1.765625 C 3.25 -3.222656 2.769531 -5.191406 2.96875 -7.671875 L 5.359375 -22.328125 L 1.4375 -22.328125 L 2.390625 -27.765625 L 6.3125 -27.765625 L 7.484375 -34.59375 Z M 14.75 -34.59375 "/></g></g></g><g fill="#9c27b0" fill-opacity="1"><g transform="translate(231.510174, 204.882335)"><g><path d="M 13.265625 0.515625 C 10.835938 0.492188 8.6875 -0.0976562 6.8125 -1.265625 C 4.9375 -2.441406 3.535156 -4.050781 2.609375 -6.09375 C 1.691406 -8.132812 1.335938 -10.390625 1.546875 -12.859375 L 1.609375 -13.875 C 1.867188 -16.582031 2.65625 -19.0625 3.96875 -21.3125 C 5.289062 -23.570312 6.984375 -25.3125 9.046875 -26.53125 C 11.117188 -27.757812 13.414062 -28.34375 15.9375 -28.28125 C 19.507812 -28.207031 22.210938 -26.890625 24.046875 -24.328125 C 25.890625 -21.773438 26.585938 -18.539062 26.140625 -14.625 L 25.734375 -11.46875 L 8.71875 -11.46875 C 8.65625 -9.675781 9.09375 -8.238281 10.03125 -7.15625 C 10.96875 -6.082031 12.25 -5.523438 13.875 -5.484375 C 16.507812 -5.421875 18.820312 -6.441406 20.8125 -8.546875 L 24.125 -4.4375 C 23.070312 -2.863281 21.5625 -1.632812 19.59375 -0.75 C 17.632812 0.125 15.523438 0.546875 13.265625 0.515625 Z M 15.578125 -22.296875 C 14.242188 -22.328125 13.054688 -21.90625 12.015625 -21.03125 C 10.984375 -20.164062 10.054688 -18.65625 9.234375 -16.5 L 19.1875 -16.5 L 19.34375 -17.171875 C 19.445312 -17.847656 19.457031 -18.492188 19.375 -19.109375 C 19.195312 -20.109375 18.773438 -20.882812 18.109375 -21.4375 C 17.441406 -21.988281 16.597656 -22.273438 15.578125 -22.296875 Z M 15.578125 -22.296875 "/></g></g></g><g fill="#9c27b0" fill-opacity="1"><g transform="translate(256.847111, 204.882335)"><g><path d="M 19.09375 -20.8125 C 18.09375 -20.976562 17.28125 -21.0625 16.65625 -21.0625 C 14.070312 -21.132812 12.023438 -20.171875 10.515625 -18.171875 L 7.3125 0 L 0.078125 0 L 4.90625 -27.765625 L 11.703125 -27.78125 L 11.03125 -24.40625 C 12.78125 -27.019531 14.9375 -28.328125 17.5 -28.328125 C 18.21875 -28.328125 19.054688 -28.207031 20.015625 -27.96875 Z M 19.09375 -20.8125 "/></g></g></g></svg>